<svg width="540" height="540" viewBox="0 0 540 540" fill="none" xmlns="http://www.w3.org/2000/svg">
<path d="M0 0H540V540H0V0Z" fill="#4046FF"/>
<path d="M98 211.601L101.498 209.969C127.499 197.835 152.343 183.361 175.722 166.725L177.709 165.312V370.903H135.923V224.508L102.731 231.548L98 211.601Z" fill="white"/>
<path d="M253.322 262.502C253.322 268.962 262.507 274.513 280.877 279.156C287.337 280.569 293.191 282.285 298.439 284.303C303.688 286.12 308.936 288.845 314.184 292.479C319.635 295.911 323.874 300.553 326.902 306.408C329.93 312.262 331.444 319.024 331.444 326.695C331.444 342.238 325.59 354.249 313.882 362.728C302.174 371.004 287.74 375.142 270.582 375.142C239.495 375.142 218.299 363.131 206.995 339.109L240.908 320.033C245.551 333.154 255.442 339.715 270.582 339.715C284.51 339.715 291.475 335.375 291.475 326.695C291.475 320.235 282.29 314.684 263.92 310.041C257.057 308.224 251.203 306.408 246.358 304.591C241.513 302.774 236.265 300.15 230.613 296.718C224.961 293.084 220.62 288.543 217.593 283.092C214.766 277.44 213.353 270.879 213.353 263.41C213.353 248.473 218.804 236.764 229.704 228.286C240.807 219.606 254.534 215.266 270.885 215.266C283.198 215.266 294.402 218.092 304.495 223.744C314.588 229.195 322.562 237.067 328.416 247.362L295.108 265.53C290.264 255.235 282.189 250.087 270.885 250.087C265.838 250.087 261.599 251.299 258.167 253.721C254.937 255.942 253.322 258.869 253.322 262.502Z" fill="white"/>
<path d="M438.728 219.505V257.052H404.512V320.033C404.512 325.282 405.824 329.117 408.449 331.54C411.073 333.962 414.908 335.375 419.955 335.779C425.001 335.981 431.259 335.88 438.728 335.476V370.903C412.284 373.931 393.41 371.509 382.105 363.636C371.003 355.561 365.452 341.027 365.452 320.033V257.052H339.108V219.505H365.452V188.923L404.512 177.114V219.505H438.728Z" fill="white"/>
<path d="M227.656 165.312C240.721 165.312 251.312 154.721 251.312 141.656C251.312 128.591 240.721 118 227.656 118C214.591 118 204 128.591 204 141.656C204 154.721 214.591 165.312 227.656 165.312Z" fill="#FE5151"/>
</svg>
